<svg xmlns="http://www.w3.org/2000/svg" viewBox="0 0 100 100" width="100" height="100">
  <ellipse cx="50" cy="85" rx="20" ry="4" fill="#E0E0E0" />

  <path d="M 68,20 
           C 68,20 30,25 25,55 
           C 20,80 45,85 45,85 
           C 45,85 20,75 28,52 
           C 35,32 68,20 68,20 Z" 
        fill="#FFD014" />

  <path d="M 66,22 
           C 66,22 34,28 30,54 
           C 26,76 44,83 44,83 
           C 44,83 23,76 31,53 
           C 37,34 66,22 66,22 Z" 
        fill="#FFE135" />

  <path d="M 68,20 
           C 70,18 73,15 75,15 
           C 77,15 76,19 74,21 
           C 72,23 66,24 66,24 Z" 
        fill="#6B8E23" />
        
  <path d="M 45,85 
           C 44,84 43,82 44,80 
           C 45,79 46,81 46,83 Z" 
        fill="#4A3511" />

  <path d="M 74,15 C 75,15 76,16 75,17" stroke="#4A3511" stroke-width="1.5" stroke-linecap="round" fill="none" />
</svg>
